<svg width="14" height="12" viewBox="0 0 14 12" fill="none" xmlns="http://www.w3.org/2000/svg">
<path d="M0.857423 8.58337L0.00577865 2.42595C-0.0572197 1.97123 0.408502 1.66082 0.73936 1.93697L3.39276 4.15036C3.46173 4.20783 3.5405 4.24907 3.62428 4.27155C3.70805 4.29402 3.79506 4.29727 3.88 4.2811C3.96494 4.26492 4.04603 4.22966 4.11831 4.17746C4.19059 4.12526 4.25255 4.05723 4.3004 3.97751L6.50954 0.291987C6.74287 -0.0973289 7.25712 -0.0973289 7.49045 0.291987L9.69959 3.97751C9.74745 4.05723 9.80941 4.12526 9.88169 4.17746C9.95397 4.22966 10.0351 4.26492 10.12 4.2811C10.2049 4.29727 10.2919 4.29402 10.3757 4.27155C10.4595 4.24907 10.5383 4.20783 10.6072 4.15036L13.2606 1.93697C13.592 1.66082 14.0572 1.97123 13.9942 2.42595L13.1426 8.58337H0.857423ZM12.5019 12H1.49814C1.414 12 1.33068 11.9816 1.25295 11.9457C1.17521 11.9099 1.10458 11.8574 1.04508 11.7913C0.924927 11.6576 0.857423 11.4763 0.857423 11.2873V9.72224H13.1426V11.2873C13.1426 11.6808 12.8556 12 12.5019 12Z" fill="#FFB743"/>
</svg>
