<svg width="283" height="63" viewBox="0 0 283 63" fill="none" xmlns="http://www.w3.org/2000/svg">
<path d="M63 31.5C63 48.897 48.897 63 31.5 63C14.103 63 0 48.897 0 31.5C0 14.103 14.103 0 31.5 0C48.897 0 63 14.103 63 31.5ZM3.13653 31.5C3.13653 47.1647 15.8353 59.8635 31.5 59.8635C47.1647 59.8635 59.8635 47.1647 59.8635 31.5C59.8635 15.8353 47.1647 3.13653 31.5 3.13653C15.8353 3.13653 3.13653 15.8353 3.13653 31.5Z" fill="#D9D9D9"/>
<mask id="path-2-inside-1_873_4426" fill="white">
<path d="M58.4013 31.5001C58.4013 46.3574 46.3571 58.4016 31.4999 58.4016C16.6426 58.4016 4.59842 46.3574 4.59842 31.5001C4.59842 16.6428 16.6426 4.59863 31.4999 4.59863C46.3571 4.59863 58.4013 16.6428 58.4013 31.5001ZM5.77471 31.5001C5.77471 45.7077 17.2923 57.2253 31.4999 57.2253C45.7075 57.2253 57.225 45.7077 57.225 31.5001C57.225 17.2925 45.7075 5.77493 31.4999 5.77493C17.2923 5.77493 5.77471 17.2925 5.77471 31.5001Z"/>
</mask>
<path d="M58.4013 31.5001C58.4013 46.3574 46.3571 58.4016 31.4999 58.4016C16.6426 58.4016 4.59842 46.3574 4.59842 31.5001C4.59842 16.6428 16.6426 4.59863 31.4999 4.59863C46.3571 4.59863 58.4013 16.6428 58.4013 31.5001ZM5.77471 31.5001C5.77471 45.7077 17.2923 57.2253 31.4999 57.2253C45.7075 57.2253 57.225 45.7077 57.225 31.5001C57.225 17.2925 45.7075 5.77493 31.4999 5.77493C17.2923 5.77493 5.77471 17.2925 5.77471 31.5001Z" stroke="#D9D9D9" stroke-width="2" stroke-dasharray="2 2" mask="url(#path-2-inside-1_873_4426)"/>
<circle cx="31.5" cy="31.4998" r="24.1423" fill="#FFC107"/>
<path d="M75.58 30.7C74.7267 30.7 73.8933 30.6 73.08 30.4C72.28 30.1867 71.5533 29.8133 70.9 29.28C70.26 28.7467 69.7467 28.0067 69.36 27.06C68.9867 26.1133 68.8 24.9 68.8 23.42C68.8 21.94 68.9867 20.7267 69.36 19.78C69.7467 18.8333 70.26 18.0933 70.9 17.56C71.5533 17.0267 72.28 16.66 73.08 16.46C73.8933 16.2467 74.7267 16.14 75.58 16.14C76.4333 16.14 77.26 16.2467 78.06 16.46C78.8733 16.6733 79.6 17.0467 80.24 17.58C80.8933 18.1133 81.4067 18.8533 81.78 19.8C82.1667 20.7467 82.36 21.9533 82.36 23.42C82.36 24.8867 82.1667 26.0933 81.78 27.04C81.4067 27.9867 80.8933 28.7267 80.24 29.26C79.6 29.7933 78.8733 30.1667 78.06 30.38C77.26 30.5933 76.4333 30.7 75.58 30.7ZM75.58 27.3C76.5667 27.3 77.3133 27.0067 77.82 26.42C78.3267 25.8333 78.58 24.8333 78.58 23.42C78.58 22.0067 78.3267 21.0067 77.82 20.42C77.3133 19.8333 76.5667 19.54 75.58 19.54C74.6067 19.54 73.8667 19.84 73.36 20.44C72.8533 21.04 72.6 22.0333 72.6 23.42C72.6 24.8067 72.8533 25.8 73.36 26.4C73.8667 27 74.6067 27.3 75.58 27.3ZM87.2828 30.5V19.54L83.2828 19.74V16.34H94.9828V19.74L90.8828 19.54V27.3L91.1028 29.3L90.8828 30.5H87.2828ZM102.689 30.7C101.836 30.7 101.003 30.6 100.189 30.4C99.3894 30.1867 98.6627 29.8133 98.0094 29.28C97.3694 28.7467 96.856 28.0067 96.4694 27.06C96.096 26.1133 95.9094 24.9 95.9094 23.42C95.9094 21.94 96.096 20.7267 96.4694 19.78C96.856 18.8333 97.3694 18.0933 98.0094 17.56C98.6627 17.0267 99.3894 16.66 100.189 16.46C101.003 16.2467 101.836 16.14 102.689 16.14C103.543 16.14 104.369 16.2467 105.169 16.46C105.983 16.6733 106.709 17.0467 107.349 17.58C108.003 18.1133 108.516 18.8533 108.889 19.8C109.276 20.7467 109.469 21.9533 109.469 23.42C109.469 24.8867 109.276 26.0933 108.889 27.04C108.516 27.9867 108.003 28.7267 107.349 29.26C106.709 29.7933 105.983 30.1667 105.169 30.38C104.369 30.5933 103.543 30.7 102.689 30.7ZM102.689 27.3C103.676 27.3 104.423 27.0067 104.929 26.42C105.436 25.8333 105.689 24.8333 105.689 23.42C105.689 22.0067 105.436 21.0067 104.929 20.42C104.423 19.8333 103.676 19.54 102.689 19.54C101.716 19.54 100.976 19.84 100.469 20.44C99.9627 21.04 99.7094 22.0333 99.7094 23.42C99.7094 24.8067 99.9627 25.8 100.469 26.4C100.976 27 101.716 27.3 102.689 27.3ZM111.866 30.5V19.56L111.466 17.56L111.886 16.36H115.706L119.626 23.96H120.026L123.266 16.36H127.246L127.446 17.56L127.246 19.48V30.5H123.626L123.686 28.8V23.22H123.466L122.666 25.14L120.866 28.5H118.466L115.706 23.22H115.506V24.84L115.706 30.5H111.866ZM136.225 30.7C135.371 30.7 134.538 30.6 133.725 30.4C132.925 30.1867 132.198 29.8133 131.545 29.28C130.905 28.7467 130.391 28.0067 130.005 27.06C129.631 26.1133 129.445 24.9 129.445 23.42C129.445 21.94 129.631 20.7267 130.005 19.78C130.391 18.8333 130.905 18.0933 131.545 17.56C132.198 17.0267 132.925 16.66 133.725 16.46C134.538 16.2467 135.371 16.14 136.225 16.14C137.078 16.14 137.905 16.2467 138.705 16.46C139.518 16.6733 140.245 17.0467 140.885 17.58C141.538 18.1133 142.051 18.8533 142.425 19.8C142.811 20.7467 143.005 21.9533 143.005 23.42C143.005 24.8867 142.811 26.0933 142.425 27.04C142.051 27.9867 141.538 28.7267 140.885 29.26C140.245 29.7933 139.518 30.1667 138.705 30.38C137.905 30.5933 137.078 30.7 136.225 30.7ZM136.225 27.3C137.211 27.3 137.958 27.0067 138.465 26.42C138.971 25.8333 139.225 24.8333 139.225 23.42C139.225 22.0067 138.971 21.0067 138.465 20.42C137.958 19.8333 137.211 19.54 136.225 19.54C135.251 19.54 134.511 19.84 134.005 20.44C133.498 21.04 133.245 22.0333 133.245 23.42C133.245 24.8067 133.498 25.8 134.005 26.4C134.511 27 135.251 27.3 136.225 27.3ZM145.401 30.5V19.56L145.001 17.56L145.401 16.34H151.361C152.321 16.34 153.241 16.4333 154.121 16.62C155.014 16.7933 155.807 17.1267 156.501 17.62C157.207 18.1133 157.761 18.82 158.161 19.74C158.574 20.66 158.781 21.8533 158.781 23.32C158.781 24.7867 158.574 25.9933 158.161 26.94C157.747 27.8733 157.187 28.6 156.481 29.12C155.774 29.64 154.974 30 154.081 30.2C153.201 30.4 152.294 30.5 151.361 30.5H145.401ZM149.041 27.3H151.361C152.534 27.3 153.434 26.9933 154.061 26.38C154.687 25.7533 155.001 24.7333 155.001 23.32C155.001 21.9067 154.681 20.9267 154.041 20.38C153.414 19.82 152.521 19.54 151.361 19.54H149.041V27.3ZM162.587 31.1L160.387 28.9L162.587 26.7L164.787 28.9L162.587 31.1ZM171.193 30.7C170.273 30.7 169.44 30.5467 168.693 30.24C167.96 29.9333 167.373 29.42 166.933 28.7C166.506 27.98 166.293 27.0067 166.293 25.78C166.293 24.54 166.526 23.5667 166.993 22.86C167.46 22.14 168.066 21.6267 168.813 21.32C169.56 21.0133 170.353 20.86 171.193 20.86C171.926 20.86 172.553 20.8867 173.073 20.94C173.606 20.9933 173.96 21.04 174.133 21.08L175.693 22.84L174.093 25.02L171.793 23.66C170.646 23.66 170.073 24.3667 170.073 25.78C170.073 26.5133 170.246 27.0533 170.593 27.4C170.94 27.7333 171.473 27.9 172.193 27.9C172.913 27.9 173.56 27.8 174.133 27.6C174.706 27.4 175.153 27.2133 175.473 27.04V29.92C175.06 30.1333 174.513 30.32 173.833 30.48C173.166 30.6267 172.286 30.7 171.193 30.7ZM182.116 30.7C180.489 30.7 179.229 30.3133 178.336 29.54C177.443 28.7667 176.996 27.5133 176.996 25.78C176.996 24.0333 177.443 22.78 178.336 22.02C179.229 21.2467 180.489 20.86 182.116 20.86C183.783 20.86 185.043 21.2467 185.896 22.02C186.763 22.78 187.196 24.0333 187.196 25.78C187.196 27.5133 186.763 28.7667 185.896 29.54C185.043 30.3133 183.783 30.7 182.116 30.7ZM182.116 28.1C182.663 28.1 183.043 27.9 183.256 27.5C183.469 27.0867 183.576 26.5133 183.576 25.78C183.576 25.0333 183.469 24.46 183.256 24.06C183.043 23.66 182.663 23.46 182.116 23.46C181.556 23.46 181.163 23.66 180.936 24.06C180.723 24.46 180.616 25.0333 180.616 25.78C180.616 26.5133 180.723 27.0867 180.936 27.5C181.163 27.9 181.556 28.1 182.116 28.1ZM188.488 22.28L189.108 21.06H192.088V21.92L192.268 22.04C192.414 21.9067 192.614 21.7533 192.868 21.58C193.134 21.3933 193.454 21.2267 193.828 21.08C194.201 20.9333 194.621 20.86 195.088 20.86C196.474 20.86 197.468 21.32 198.068 22.24C198.308 21.9067 198.668 21.5933 199.148 21.3C199.641 20.9933 200.321 20.84 201.188 20.84C202.388 20.84 203.288 21.18 203.888 21.86C204.488 22.54 204.788 23.4933 204.788 24.72V27.28L205.208 29.28L204.788 30.5H201.188V25.24C201.188 24.7333 201.074 24.3467 200.848 24.08C200.634 23.8 200.294 23.66 199.828 23.66C199.521 23.66 199.254 23.7733 199.028 24C198.801 24.2267 198.688 24.5133 198.688 24.86V30.5H195.088V25.26C195.088 24.7533 194.974 24.3667 194.748 24.1C194.534 23.82 194.194 23.68 193.728 23.68L192.488 24.06V30.5H188.888V24.48L188.488 22.28Z" fill="#FFC107"/>
<path d="M70.14 47.6C69.7133 47.6 69.3567 47.5633 69.07 47.49C68.79 47.4167 68.5633 47.3333 68.39 47.24V46.06C68.63 46.1867 68.9033 46.2967 69.21 46.39C69.5233 46.4767 69.8233 46.52 70.11 46.52C70.45 46.52 70.62 46.41 70.62 46.19C70.62 46.07 70.57 45.98 70.47 45.92C70.3767 45.86 70.2433 45.8067 70.07 45.76C69.9033 45.7067 69.71 45.6433 69.49 45.57C69.11 45.4367 68.8167 45.2667 68.61 45.06C68.4033 44.8533 68.3 44.53 68.3 44.09C68.3 43.6167 68.4633 43.2633 68.79 43.03C69.1233 42.7967 69.56 42.68 70.1 42.68C70.32 42.68 70.5067 42.6933 70.66 42.72C70.8133 42.74 70.9533 42.76 71.08 42.78L71.99 43.28L71.6 44.25L70.1 43.77C69.9733 43.77 69.87 43.7967 69.79 43.85C69.7167 43.8967 69.68 43.9633 69.68 44.05C69.68 44.19 69.75 44.2967 69.89 44.37C70.03 44.4367 70.2333 44.51 70.5 44.59C71.04 44.75 71.4367 44.9433 71.69 45.17C71.9433 45.3967 72.07 45.73 72.07 46.17C72.07 46.5767 71.91 46.9167 71.59 47.19C71.2767 47.4633 70.7933 47.6 70.14 47.6ZM73.6652 42.28L72.5952 41.21L73.6652 40.14L74.7252 41.21L73.6652 42.28ZM72.9652 47.5V44.19L72.7552 43.39L72.9552 42.78H74.3552V47.5H72.9652ZM75.4652 47.5V44.49L75.2652 43.39L75.5752 42.78H76.6652V43.21L76.7552 43.27C76.8286 43.2033 76.9286 43.1267 77.0552 43.04C77.1886 42.9467 77.3486 42.8633 77.5352 42.79C77.7219 42.7167 77.9319 42.68 78.1652 42.68C78.7652 42.68 79.2152 42.85 79.5152 43.19C79.8152 43.53 79.9652 44.0067 79.9652 44.62V45.89L80.1752 46.89L79.9652 47.5H78.5652V44.58C78.5652 44.3267 78.5086 44.1333 78.3952 44C78.2886 43.86 78.1186 43.79 77.8852 43.79L76.8652 43.98V47.5H75.4652ZM82.9891 47.6C82.5824 47.6 82.2157 47.5233 81.8891 47.37C81.5624 47.21 81.3057 46.95 81.1191 46.59C80.9324 46.23 80.8391 45.7467 80.8391 45.14C80.8391 44.52 80.9424 44.0333 81.1491 43.68C81.3624 43.32 81.6457 43.0633 81.9991 42.91C82.3591 42.7567 82.7557 42.68 83.1891 42.68C83.4957 42.68 83.7224 42.6933 83.8691 42.72C84.0224 42.74 84.1524 42.7633 84.2591 42.79L85.0391 43.67L84.4391 44.46L83.3891 43.78C83.0557 43.78 82.7957 43.8967 82.6091 44.13C82.4224 44.3633 82.3291 44.7 82.3291 45.14C82.3291 45.6067 82.4291 45.95 82.6291 46.17C82.8291 46.39 83.1157 46.5 83.4891 46.5C83.7357 46.5 83.9557 46.4733 84.1491 46.42C84.3491 46.36 84.5157 46.2967 84.6491 46.23C84.7824 46.1567 84.8757 46.1033 84.9291 46.07V47.21C84.7624 47.2967 84.5191 47.3833 84.1991 47.47C83.8857 47.5567 83.4824 47.6 82.9891 47.6ZM87.9914 47.6C87.5581 47.6 87.1714 47.5233 86.8314 47.37C86.4914 47.2167 86.2247 46.96 86.0314 46.6C85.8381 46.24 85.7414 45.7533 85.7414 45.14C85.7414 44.5467 85.8447 44.07 86.0514 43.71C86.2581 43.35 86.5314 43.09 86.8714 42.93C87.2114 42.7633 87.5847 42.68 87.9914 42.68C88.4381 42.68 88.7881 42.73 89.0414 42.83C89.3014 42.93 89.4981 43.0267 89.6314 43.12L90.1314 44.71L89.9314 45.33H87.1314C87.1714 45.6833 87.2981 45.9667 87.5114 46.18C87.7247 46.3933 88.0514 46.5 88.4914 46.5C88.8514 46.5 89.1414 46.4567 89.3614 46.37C89.5881 46.2833 89.7447 46.2167 89.8314 46.17V47.21C89.6314 47.3167 89.3747 47.41 89.0614 47.49C88.7547 47.5633 88.3981 47.6 87.9914 47.6ZM87.1214 44.69L88.6214 44.49L88.4714 43.75C88.4247 43.7233 88.3581 43.7033 88.2714 43.69C88.1914 43.6767 88.1181 43.67 88.0514 43.67C87.7514 43.67 87.5214 43.7767 87.3614 43.99C87.2014 44.1967 87.1214 44.43 87.1214 44.69ZM93.1059 47.5V46.41C93.1059 46.41 93.1825 46.36 93.3359 46.26C93.4892 46.1533 93.6859 46.0167 93.9259 45.85C94.1659 45.6833 94.4125 45.5 94.6659 45.3C94.9259 45.1 95.1559 44.9033 95.3559 44.71C95.7892 44.3033 96.1125 43.94 96.3259 43.62C96.5392 43.3 96.6459 42.9467 96.6459 42.56C96.6459 42.3 96.5625 42.0967 96.3959 41.95C96.2359 41.7967 95.9692 41.72 95.5959 41.72C95.3159 41.72 95.0325 41.75 94.7459 41.81C94.4592 41.87 94.1925 41.9467 93.9459 42.04C93.6992 42.1267 93.4892 42.2167 93.3159 42.31V40.91C93.3825 40.8767 93.5159 40.8167 93.7159 40.73C93.9225 40.6367 94.1925 40.55 94.5259 40.47C94.8592 40.39 95.2525 40.35 95.7059 40.35C96.5525 40.35 97.1792 40.5333 97.5859 40.9C97.9992 41.26 98.2059 41.7733 98.2059 42.44C98.2059 42.8533 98.1192 43.2367 97.9459 43.59C97.7792 43.9433 97.5559 44.2667 97.2759 44.56C97.0025 44.8533 96.7059 45.12 96.3859 45.36C96.0725 45.6 95.7692 45.8133 95.4759 46L95.5259 46.2L98.2059 46V47.5H93.1059ZM101.785 47.6C101.219 47.6 100.725 47.4833 100.305 47.25C99.8921 47.0167 99.5721 46.6367 99.3455 46.11C99.1188 45.5767 99.0055 44.86 99.0055 43.96C99.0055 43.1 99.1188 42.4033 99.3455 41.87C99.5721 41.3367 99.8921 40.9467 100.305 40.7C100.725 40.4467 101.219 40.32 101.785 40.32C102.359 40.32 102.852 40.4467 103.265 40.7C103.679 40.9533 103.999 41.3467 104.225 41.88C104.452 42.4133 104.565 43.1067 104.565 43.96C104.565 44.8467 104.452 45.5567 104.225 46.09C103.999 46.6233 103.679 47.01 103.265 47.25C102.852 47.4833 102.359 47.6 101.785 47.6ZM101.785 46.16C102.245 46.16 102.575 45.9967 102.775 45.67C102.975 45.3367 103.075 44.7667 103.075 43.96C103.075 43.2 102.975 42.6433 102.775 42.29C102.575 41.9367 102.245 41.76 101.785 41.76C101.339 41.76 101.012 41.94 100.805 42.3C100.599 42.6533 100.495 43.2067 100.495 43.96C100.495 44.76 100.599 45.3267 100.805 45.66C101.012 45.9933 101.339 46.16 101.785 46.16ZM105.313 47.5V46.41C105.313 46.41 105.39 46.36 105.543 46.26C105.696 46.1533 105.893 46.0167 106.133 45.85C106.373 45.6833 106.62 45.5 106.873 45.3C107.133 45.1 107.363 44.9033 107.563 44.71C107.996 44.3033 108.32 43.94 108.533 43.62C108.746 43.3 108.853 42.9467 108.853 42.56C108.853 42.3 108.77 42.0967 108.603 41.95C108.443 41.7967 108.176 41.72 107.803 41.72C107.523 41.72 107.24 41.75 106.953 41.81C106.666 41.87 106.4 41.9467 106.153 42.04C105.906 42.1267 105.696 42.2167 105.523 42.31V40.91C105.59 40.8767 105.723 40.8167 105.923 40.73C106.13 40.6367 106.4 40.55 106.733 40.47C107.066 40.39 107.46 40.35 107.913 40.35C108.76 40.35 109.386 40.5333 109.793 40.9C110.206 41.26 110.413 41.7733 110.413 42.44C110.413 42.8533 110.326 43.2367 110.153 43.59C109.986 43.9433 109.763 44.2667 109.483 44.56C109.21 44.8533 108.913 45.12 108.593 45.36C108.28 45.6 107.976 45.8133 107.683 46L107.733 46.2L110.413 46V47.5H105.313ZM114.723 47.5V46.5H110.913V45.48L114.163 40.42H116.163L116.363 41.03L116.163 42.03V45.18H117.463V46.4L116.163 46.5V47.5H114.723ZM112.743 45.18H114.723V42.2H114.543L112.743 45.18Z" fill="#BFBFBF"/>
</svg>
